2014001_C1_05_grf
version=1
nRows=27
nColumns=19
inDegrees=no
endheader
time	ground_force_1_vx	ground_force_1_vy	ground_force_1_vz	ground_force_1_px	ground_force_1_py	ground_force_1_pz	ground_force_1_mx	ground_force_1_my	ground_force_1_mz	ground_force_2_vx	ground_force_2_vy	ground_force_2_vz	ground_force_2_px	ground_force_2_py	ground_force_2_pz	ground_force_2_mx	ground_force_2_my	ground_force_2_mz
      1.37200000	     -2.69293506	    655.60975671	     -3.97911295	      0.29805467	     -0.00200000	      0.30274143	      0.00000000	      0.29515948	      0.00000000	      0.00000000	      0.00000000	      0.00000000	      0.00000000	      0.00000000	      0.00000000	      0.00000000	      0.00000000	      0.00000000
      1.37300000	     -2.70516649	    655.59262410	     -4.00620839	      0.29809966	     -0.00200000	      0.30291321	      0.00000000	      0.29707956	      0.00000000	      0.00000000	      0.00000000	      0.00000000	      0.00000000	      0.00000000	      0.00000000	      0.00000000	      0.00000000	      0.00000000
      1.37400000	     -2.71772984	    655.57554364	     -4.03376482	      0.29814502	     -0.00200000	      0.30308413	      0.00000000	      0.29893280	     -0.00000000	      0.00000000	      0.00000000	      0.00000000	      0.00000000	      0.00000000	      0.00000000	      0.00000000	      0.00000000	      0.00000000
      1.37500000	     -2.73067150	    655.55856749	     -4.06176969	      0.29819086	     -0.00200000	      0.30325390	      0.00000000	      0.30069594	     -0.00000000	      0.00000000	      0.00000000	      0.00000000	      0.00000000	      0.00000000	      0.00000000	      0.00000000	      0.00000000	      0.00000000
      1.37600000	     -2.74389060	    655.54169565	     -4.09002788	      0.29823708	     -0.00200000	      0.30342271	      0.00000000	      0.30238300	      0.00000000	      0.00000000	      0.00000000	      0.00000000	      0.00000000	      0.00000000	      0.00000000	      0.00000000	      0.00000000	      0.00000000
      1.37700000	     -2.75742821	    655.52503243	     -4.11846908	      0.29828378	     -0.00200000	      0.30359025	      0.00000000	      0.30397143	      0.00000000	      0.00000000	      0.00000000	      0.00000000	      0.00000000	      0.00000000	      0.00000000	      0.00000000	      0.00000000	      0.00000000
      1.37800000	     -2.77119828	    655.50862998	     -4.14695079	      0.29833086	     -0.00200000	      0.30375671	      0.00000000	      0.30547867	      0.00000000	      0.00000000	      0.00000000	      0.00000000	      0.00000000	      0.00000000	      0.00000000	      0.00000000	      0.00000000	      0.00000000
      1.37900000	     -2.78523127	    655.49274907	     -4.17535380	      0.29837839	     -0.00200000	      0.30392176	      0.00000000	      0.30688194	      0.00000000	      0.00000000	      0.00000000	      0.00000000	      0.00000000	      0.00000000	      0.00000000	      0.00000000	      0.00000000	      0.00000000
      1.38000000	     -2.79945368	    655.47733754	     -4.20359289	      0.29842628	     -0.00200000	      0.30408560	      0.00000000	      0.30820056	     -0.00000000	      0.00000000	      0.00000000	      0.00000000	      0.00000000	      0.00000000	      0.00000000	      0.00000000	      0.00000000	      0.00000000
      1.38100000	     -2.81388927	    655.46270832	     -4.23150021	      0.29847458	     -0.00200000	      0.30424788	      0.00000000	      0.30941307	     -0.00000000	      0.00000000	      0.00000000	      0.00000000	      0.00000000	      0.00000000	      0.00000000	      0.00000000	      0.00000000	      0.00000000
      1.38200000	     -2.82847853	    655.44880927	     -4.25903825	      0.29852319	     -0.00200000	      0.30440884	      0.00000000	      0.31054151	      0.00000000	      0.00000000	      0.00000000	      0.00000000	      0.00000000	      0.00000000	      0.00000000	      0.00000000	      0.00000000	      0.00000000
      1.38300000	     -2.84324046	    655.43584898	     -4.28598281	      0.29857220	     -0.00200000	      0.30456811	      0.00000000	      0.31156614	      0.00000000	      0.00000000	      0.00000000	      0.00000000	      0.00000000	      0.00000000	      0.00000000	      0.00000000	      0.00000000	      0.00000000
      1.38400000	     -2.85812840	    655.42372316	     -4.31234483	      0.29862149	     -0.00200000	      0.30472598	      0.00000000	      0.31250906	      0.00000000	      0.00000000	      0.00000000	      0.00000000	      0.00000000	      0.00000000	      0.00000000	      0.00000000	      0.00000000	      0.00000000
      1.38500000	     -2.87316581	    655.41269258	     -4.33784397	      0.29867111	     -0.00200000	      0.30488204	      0.00000000	      0.31335286	      0.00000000	      0.00000000	      0.00000000	      0.00000000	      0.00000000	      0.00000000	      0.00000000	      0.00000000	      0.00000000	      0.00000000
      1.38600000	     -2.88832393	    655.40254861	     -4.36254870	      0.29872101	     -0.00200000	      0.30503663	      0.00000000	      0.31412105	      0.00000000	      0.00000000	      0.00000000	      0.00000000	      0.00000000	      0.00000000	      0.00000000	      0.00000000	      0.00000000	      0.00000000
      1.38700000	     -2.90363682	    655.39339557	     -4.38613957	      0.29877124	     -0.00200000	      0.30518936	      0.00000000	      0.31479987	     -0.00000000	      0.00000000	      0.00000000	      0.00000000	      0.00000000	      0.00000000	      0.00000000	      0.00000000	      0.00000000	      0.00000000
      1.38800000	     -2.91907601	    655.38502485	     -4.40874929	      0.29882173	     -0.00200000	      0.30534056	      0.00000000	      0.31541147	      0.00000000	      0.00000000	      0.00000000	      0.00000000	      0.00000000	      0.00000000	      0.00000000	      0.00000000	      0.00000000	      0.00000000
      1.38900000	     -2.93467627	    655.37754074	     -4.43003071	      0.29887256	     -0.00200000	      0.30548984	      0.00000000	      0.31594471	      0.00000000	      0.00000000	      0.00000000	      0.00000000	      0.00000000	      0.00000000	      0.00000000	      0.00000000	      0.00000000	      0.00000000
      1.39000000	     -2.95040868	    655.37068248	     -4.45017684	      0.29892366	     -0.00200000	      0.30563758	      0.00000000	      0.31641981	      0.00000000	      0.00000000	      0.00000000	      0.00000000	      0.00000000	      0.00000000	      0.00000000	      0.00000000	      0.00000000	      0.00000000
      1.39100000	     -2.96630762	    655.36455438	     -4.46882332	      0.29897509	     -0.00200000	      0.30578337	      0.00000000	      0.31682814	      0.00000000	      0.00000000	      0.00000000	      0.00000000	      0.00000000	      0.00000000	      0.00000000	      0.00000000	      0.00000000	      0.00000000
      1.39200000	     -2.98233563	    655.35899997	     -4.48621158	      0.29902679	     -0.00200000	      0.30592759	      0.00000000	      0.31718765	      0.00000000	      0.00000000	      0.00000000	      0.00000000	      0.00000000	      0.00000000	      0.00000000	      0.00000000	      0.00000000	      0.00000000
      1.39300000	     -2.99851019	    655.35407141	     -4.50196583	      0.29907882	     -0.00200000	      0.30606985	      0.00000000	      0.31749036	      0.00000000	      0.00000000	      0.00000000	      0.00000000	      0.00000000	      0.00000000	      0.00000000	      0.00000000	      0.00000000	      0.00000000
      1.39400000	     -3.01478310	    655.34971654	     -4.51636733	      0.29913111	     -0.00200000	      0.30621053	      0.00000000	      0.31774989	      0.00000000	      0.00000000	      0.00000000	      0.00000000	      0.00000000	      0.00000000	      0.00000000	      0.00000000	      0.00000000	      0.00000000
      1.39500000	     -3.03114834	    655.34601361	     -4.52902401	      0.29918372	     -0.00200000	      0.30634923	      0.00000000	      0.31795795	      0.00000000	      0.00000000	      0.00000000	      0.00000000	      0.00000000	      0.00000000	      0.00000000	      0.00000000	      0.00000000	      0.00000000
      1.39600000	     -3.04755941	    655.34288436	     -4.54024086	      0.29923660	     -0.00200000	      0.30648633	      0.00000000	      0.31812690	      0.00000000	      0.00000000	      0.00000000	      0.00000000	      0.00000000	      0.00000000	      0.00000000	      0.00000000	      0.00000000	      0.00000000
      1.39700000	     -3.06399660	    655.34043312	     -4.54960437	      0.29928980	     -0.00200000	      0.30662140	      0.00000000	      0.31825044	     -0.00000000	      0.00000000	      0.00000000	      0.00000000	      0.00000000	      0.00000000	      0.00000000	      0.00000000	      0.00000000	      0.00000000
      1.39800000	     -3.08043491	    655.33855557	     -4.55744658	      0.29934324	     -0.00200000	      0.30675485	      0.00000000	      0.31834097	     -0.00000000	      0.00000000	      0.00000000	      0.00000000	      0.00000000	      0.00000000	      0.00000000	      0.00000000	      0.00000000	      0.00000000
